<mxfile host="app.diagrams.net" modified="2023-05-02T17:07:39.168Z" agent="Mozilla/5.0 (X11; Linux x86_64) AppleWebKit/537.36 (KHTML, like Gecko) Chrome/112.0.0.0 Safari/537.36" etag="7sYyBlCM4jqnLCx9q6F2" version="21.2.4" type="device" pages="2">
  <diagram name="ClientAgnosticTCPSequenceDiagram" id="13e1069c-82ec-6db2-03f1-153e76fe0fe0">
    <mxGraphModel dx="1616" dy="881" grid="1" gridSize="10" guides="1" tooltips="1" connect="1" arrows="1" fold="1" page="1" pageScale="1" pageWidth="1100" pageHeight="850" background="none" math="0" shadow="0">
      <root>
        <mxCell id="0" />
        <mxCell id="1" parent="0" />
        <mxCell id="7baba1c4bc27f4b0-2" value="ClientSkeleton" style="shape=umlLifeline;perimeter=lifelinePerimeter;whiteSpace=wrap;html=1;container=1;collapsible=0;recursiveResize=0;outlineConnect=0;rounded=1;shadow=0;comic=0;labelBackgroundColor=none;strokeWidth=1;fontFamily=Verdana;fontSize=12;align=center;" parent="1" vertex="1">
          <mxGeometry x="640" y="80" width="100" height="580" as="geometry" />
        </mxCell>
        <mxCell id="7baba1c4bc27f4b0-10" value="" style="html=1;points=[];perimeter=orthogonalPerimeter;rounded=0;shadow=0;comic=0;labelBackgroundColor=none;strokeWidth=1;fontFamily=Verdana;fontSize=12;align=center;" parent="7baba1c4bc27f4b0-2" vertex="1">
          <mxGeometry x="45" y="100" width="10" height="400" as="geometry" />
        </mxCell>
        <mxCell id="7baba1c4bc27f4b0-3" value="LocalServer" style="shape=umlLifeline;perimeter=lifelinePerimeter;whiteSpace=wrap;html=1;container=1;collapsible=0;recursiveResize=0;outlineConnect=0;rounded=1;shadow=0;comic=0;labelBackgroundColor=none;strokeWidth=1;fontFamily=Verdana;fontSize=12;align=center;" parent="1" vertex="1">
          <mxGeometry x="880" y="80" width="120" height="580" as="geometry" />
        </mxCell>
        <mxCell id="7baba1c4bc27f4b0-13" value="" style="html=1;points=[];perimeter=orthogonalPerimeter;rounded=0;shadow=0;comic=0;labelBackgroundColor=none;strokeWidth=1;fontFamily=Verdana;fontSize=12;align=center;" parent="7baba1c4bc27f4b0-3" vertex="1">
          <mxGeometry x="50" y="120" width="10" height="240" as="geometry" />
        </mxCell>
        <mxCell id="7baba1c4bc27f4b0-8" value="ClientMain" style="shape=umlLifeline;perimeter=lifelinePerimeter;whiteSpace=wrap;html=1;container=1;collapsible=0;recursiveResize=0;outlineConnect=0;rounded=1;shadow=0;comic=0;labelBackgroundColor=none;strokeWidth=1;fontFamily=Verdana;fontSize=12;align=center;" parent="1" vertex="1">
          <mxGeometry x="100" y="80" width="100" height="580" as="geometry" />
        </mxCell>
        <mxCell id="7baba1c4bc27f4b0-9" value="" style="html=1;points=[];perimeter=orthogonalPerimeter;rounded=0;shadow=0;comic=0;labelBackgroundColor=none;strokeWidth=1;fontFamily=Verdana;fontSize=12;align=center;" parent="7baba1c4bc27f4b0-8" vertex="1">
          <mxGeometry x="45" y="100" width="10" height="440" as="geometry" />
        </mxCell>
        <mxCell id="7baba1c4bc27f4b0-11" value="NotifyChange :&lt;br&gt;ViewMessage&amp;lt;?&amp;gt;" style="html=1;verticalAlign=bottom;endArrow=block;entryX=0;entryY=0;labelBackgroundColor=none;fontFamily=Verdana;fontSize=12;edgeStyle=elbowEdgeStyle;elbow=vertical;" parent="1" source="7baba1c4bc27f4b0-9" target="7baba1c4bc27f4b0-10" edge="1">
          <mxGeometry relative="1" as="geometry">
            <mxPoint x="220" y="190" as="sourcePoint" />
          </mxGeometry>
        </mxCell>
        <mxCell id="7baba1c4bc27f4b0-14" value="Update :&lt;br&gt;ViewMessage&amp;lt;?&amp;gt;" style="html=1;verticalAlign=bottom;endArrow=block;entryX=0;entryY=0;labelBackgroundColor=none;fontFamily=Verdana;fontSize=12;edgeStyle=elbowEdgeStyle;elbow=vertical;" parent="1" source="7baba1c4bc27f4b0-10" target="7baba1c4bc27f4b0-13" edge="1">
          <mxGeometry x="-0.3485" y="10" relative="1" as="geometry">
            <mxPoint x="420" y="200" as="sourcePoint" />
            <mxPoint as="offset" />
          </mxGeometry>
        </mxCell>
        <mxCell id="1Mj5_L2qgVu4fqB3LOrV-1" value="GameController" style="shape=umlLifeline;perimeter=lifelinePerimeter;whiteSpace=wrap;html=1;container=1;collapsible=0;recursiveResize=0;outlineConnect=0;rounded=1;shadow=0;comic=0;labelBackgroundColor=none;strokeWidth=1;fontFamily=Verdana;fontSize=12;align=center;" parent="1" vertex="1">
          <mxGeometry x="1300" y="80" width="100" height="580" as="geometry" />
        </mxCell>
        <mxCell id="1Mj5_L2qgVu4fqB3LOrV-2" value="" style="html=1;points=[];perimeter=orthogonalPerimeter;rounded=0;shadow=0;comic=0;labelBackgroundColor=none;strokeWidth=1;fontFamily=Verdana;fontSize=12;align=center;" parent="1Mj5_L2qgVu4fqB3LOrV-1" vertex="1">
          <mxGeometry x="45" y="330" width="10" height="40" as="geometry" />
        </mxCell>
        <mxCell id="1Mj5_L2qgVu4fqB3LOrV-3" value="OnMessage :&lt;br&gt;ViewMessage&amp;lt;?&amp;gt;" style="html=1;verticalAlign=bottom;endArrow=block;labelBackgroundColor=none;fontFamily=Verdana;fontSize=12;elbow=vertical;rounded=0;edgeStyle=elbowEdgeStyle;" parent="1" target="1Mj5_L2qgVu4fqB3LOrV-2" edge="1">
          <mxGeometry x="-0.6044" y="10" relative="1" as="geometry">
            <mxPoint x="940" y="380" as="sourcePoint" />
            <mxPoint x="1130" y="230" as="targetPoint" />
            <mxPoint as="offset" />
            <Array as="points">
              <mxPoint x="1160" y="410" />
            </Array>
          </mxGeometry>
        </mxCell>
        <mxCell id="1Mj5_L2qgVu4fqB3LOrV-4" value="Alt" style="shape=umlFrame;whiteSpace=wrap;html=1;pointerEvents=0;" parent="1" vertex="1">
          <mxGeometry x="840" y="160" width="280" height="410" as="geometry" />
        </mxCell>
        <mxCell id="1Mj5_L2qgVu4fqB3LOrV-9" value="GameModel" style="shape=umlLifeline;perimeter=lifelinePerimeter;whiteSpace=wrap;html=1;container=1;collapsible=0;recursiveResize=0;outlineConnect=0;rounded=1;shadow=0;comic=0;labelBackgroundColor=none;strokeWidth=1;fontFamily=Verdana;fontSize=12;align=center;size=40;" parent="1" vertex="1">
          <mxGeometry x="1480" y="75" width="100" height="580" as="geometry" />
        </mxCell>
        <mxCell id="1Mj5_L2qgVu4fqB3LOrV-10" value="" style="html=1;points=[];perimeter=orthogonalPerimeter;rounded=0;shadow=0;comic=0;labelBackgroundColor=none;strokeWidth=1;fontFamily=Verdana;fontSize=12;align=center;" parent="1Mj5_L2qgVu4fqB3LOrV-9" vertex="1">
          <mxGeometry x="45" y="350" width="10" height="80" as="geometry" />
        </mxCell>
        <mxCell id="1Mj5_L2qgVu4fqB3LOrV-14" value="NotifyChange:&lt;br&gt;ModelMessage&amp;lt;?&amp;gt;" style="html=1;verticalAlign=bottom;endArrow=block;edgeStyle=elbowEdgeStyle;elbow=vertical;curved=0;rounded=0;entryX=1.093;entryY=0.016;entryDx=0;entryDy=0;entryPerimeter=0;" parent="1" source="1Mj5_L2qgVu4fqB3LOrV-10" target="WPbKmTHhK-Ht-RcU386x-2" edge="1">
          <mxGeometry x="-0.8624" y="-3" width="80" relative="1" as="geometry">
            <mxPoint x="700" y="390" as="sourcePoint" />
            <mxPoint x="710" y="470" as="targetPoint" />
            <Array as="points">
              <mxPoint x="720" y="470" />
              <mxPoint x="1140" y="450" />
              <mxPoint x="1130" y="440" />
              <mxPoint x="1130" y="460" />
              <mxPoint x="1090" y="430" />
              <mxPoint x="1080" y="400" />
            </Array>
            <mxPoint y="-1" as="offset" />
          </mxGeometry>
        </mxCell>
        <mxCell id="1Mj5_L2qgVu4fqB3LOrV-16" value="Else&lt;br&gt;" style="html=1;whiteSpace=wrap;dashed=1;" parent="1" vertex="1">
          <mxGeometry x="870" y="380" width="60" height="20" as="geometry" />
        </mxCell>
        <mxCell id="1Mj5_L2qgVu4fqB3LOrV-13" value="[Modifying state methods]" style="html=1;verticalAlign=bottom;endArrow=block;labelBackgroundColor=none;fontFamily=Verdana;fontSize=12;elbow=vertical;rounded=0;entryX=0.033;entryY=-0.001;entryDx=0;entryDy=0;entryPerimeter=0;exitX=1;exitY=0.102;exitDx=0;exitDy=0;exitPerimeter=0;edgeStyle=elbowEdgeStyle;" parent="1" source="1Mj5_L2qgVu4fqB3LOrV-2" target="1Mj5_L2qgVu4fqB3LOrV-10" edge="1">
          <mxGeometry x="0.0018" relative="1" as="geometry">
            <mxPoint x="1410" y="400" as="sourcePoint" />
            <mxPoint x="1595" y="339.58" as="targetPoint" />
            <mxPoint as="offset" />
            <Array as="points">
              <mxPoint x="1500" y="425" />
              <mxPoint x="1410" y="430" />
              <mxPoint x="1520" y="415" />
              <mxPoint x="1430" y="420" />
            </Array>
          </mxGeometry>
        </mxCell>
        <mxCell id="1Mj5_L2qgVu4fqB3LOrV-23" value="Thread :&lt;br&gt;ClientMain" style="shape=umlFrame;whiteSpace=wrap;html=1;pointerEvents=0;width=80;height=50;" parent="1" vertex="1">
          <mxGeometry y="40" width="310" height="640" as="geometry" />
        </mxCell>
        <mxCell id="1Mj5_L2qgVu4fqB3LOrV-24" value="NETWORK" style="shape=umlFrame;whiteSpace=wrap;html=1;pointerEvents=0;width=80;height=50;" parent="1" vertex="1">
          <mxGeometry x="310" y="40" width="170" height="640" as="geometry" />
        </mxCell>
        <mxCell id="1Mj5_L2qgVu4fqB3LOrV-25" value="Thread :&lt;br&gt;AppServer;Receive" style="shape=umlFrame;whiteSpace=wrap;html=1;pointerEvents=0;width=140;height=50;" parent="1" vertex="1">
          <mxGeometry x="480" y="40" width="1140" height="640" as="geometry" />
        </mxCell>
        <mxCell id="5IxiRlLwKeozM7aqE2pk-1" value="LobbyController" style="shape=umlLifeline;perimeter=lifelinePerimeter;whiteSpace=wrap;html=1;container=1;collapsible=0;recursiveResize=0;outlineConnect=0;rounded=1;shadow=0;comic=0;labelBackgroundColor=none;strokeWidth=1;fontFamily=Verdana;fontSize=12;align=center;" parent="1" vertex="1">
          <mxGeometry x="1150" y="80" width="110" height="580" as="geometry" />
        </mxCell>
        <mxCell id="5IxiRlLwKeozM7aqE2pk-2" value="" style="html=1;points=[];perimeter=orthogonalPerimeter;rounded=0;shadow=0;comic=0;labelBackgroundColor=none;strokeWidth=1;fontFamily=Verdana;fontSize=12;align=center;" parent="5IxiRlLwKeozM7aqE2pk-1" vertex="1">
          <mxGeometry x="50" y="220" width="10" height="40" as="geometry" />
        </mxCell>
        <mxCell id="5IxiRlLwKeozM7aqE2pk-4" value="OnMessage :&lt;br&gt;ViewMessage&amp;lt;?&amp;gt;" style="html=1;verticalAlign=bottom;endArrow=block;edgeStyle=elbowEdgeStyle;elbow=vertical;curved=0;rounded=0;" parent="1" edge="1">
          <mxGeometry x="-0.0768" width="80" relative="1" as="geometry">
            <mxPoint x="940" y="300" as="sourcePoint" />
            <mxPoint x="1200" y="300" as="targetPoint" />
            <mxPoint as="offset" />
          </mxGeometry>
        </mxCell>
        <mxCell id="NL6Mt72aLz9GQ9Ot-c86-1" value="" style="html=1;verticalAlign=bottom;endArrow=block;edgeStyle=elbowEdgeStyle;elbow=vertical;rounded=0;exitX=-0.019;exitY=0.479;exitDx=0;exitDy=0;exitPerimeter=0;entryX=1.1;entryY=0.005;entryDx=0;entryDy=0;entryPerimeter=0;" parent="1" source="5IxiRlLwKeozM7aqE2pk-2" target="WPbKmTHhK-Ht-RcU386x-1" edge="1">
          <mxGeometry x="0.1288" y="-9" width="80" relative="1" as="geometry">
            <mxPoint x="950" y="370" as="sourcePoint" />
            <mxPoint x="710" y="340" as="targetPoint" />
            <mxPoint as="offset" />
            <Array as="points">
              <mxPoint x="1180" y="340" />
            </Array>
          </mxGeometry>
        </mxCell>
        <mxCell id="WPbKmTHhK-Ht-RcU386x-1" value="" style="html=1;points=[];perimeter=orthogonalPerimeter;rounded=0;shadow=0;comic=0;labelBackgroundColor=none;strokeWidth=1;fontFamily=Verdana;fontSize=12;align=center;" parent="1" vertex="1">
          <mxGeometry x="690" y="340" width="10" height="70" as="geometry" />
        </mxCell>
        <mxCell id="WPbKmTHhK-Ht-RcU386x-2" value="" style="html=1;points=[];perimeter=orthogonalPerimeter;rounded=0;shadow=0;comic=0;labelBackgroundColor=none;strokeWidth=1;fontFamily=Verdana;fontSize=12;align=center;" parent="1" vertex="1">
          <mxGeometry x="690" y="470" width="10" height="30" as="geometry" />
        </mxCell>
        <mxCell id="WPbKmTHhK-Ht-RcU386x-4" value="Send : ModelMessage&amp;lt;?&amp;gt;" style="html=1;verticalAlign=bottom;endArrow=block;edgeStyle=elbowEdgeStyle;elbow=vertical;curved=0;rounded=0;" parent="1" edge="1">
          <mxGeometry x="0.1195" width="80" relative="1" as="geometry">
            <mxPoint x="690" y="410" as="sourcePoint" />
            <mxPoint x="155" y="410" as="targetPoint" />
            <mxPoint as="offset" />
            <Array as="points">
              <mxPoint x="600" y="410" />
              <mxPoint x="490" y="360" />
            </Array>
          </mxGeometry>
        </mxCell>
        <mxCell id="WPbKmTHhK-Ht-RcU386x-5" value="Send : ModelMessage&amp;lt;?&amp;gt;" style="html=1;verticalAlign=bottom;endArrow=block;edgeStyle=elbowEdgeStyle;elbow=vertical;curved=0;rounded=0;exitX=-0.007;exitY=0.571;exitDx=0;exitDy=0;exitPerimeter=0;" parent="1" edge="1">
          <mxGeometry x="0.1195" width="80" relative="1" as="geometry">
            <mxPoint x="690" y="501" as="sourcePoint" />
            <mxPoint x="154" y="500" as="targetPoint" />
            <mxPoint as="offset" />
          </mxGeometry>
        </mxCell>
        <mxCell id="1Mj5_L2qgVu4fqB3LOrV-5" value="ViewMessage&amp;lt;?&amp;gt; is of type:&lt;br&gt;RequestLobby,&lt;br&gt;JoinLobbyMessage,&lt;br&gt;CreateLobbyMessage&lt;br&gt;RecoverLobbyMessage" style="html=1;whiteSpace=wrap;dashed=1;" parent="1" vertex="1">
          <mxGeometry x="950" y="170" width="130" height="100" as="geometry" />
        </mxCell>
      </root>
    </mxGraphModel>
  </diagram>
  <diagram id="-NLqRZDCjcDj3ULBXtWr" name="AppClientImplementation">
    <mxGraphModel dx="2443" dy="881" grid="1" gridSize="10" guides="1" tooltips="1" connect="1" arrows="1" fold="1" page="1" pageScale="1" pageWidth="827" pageHeight="1169" math="0" shadow="0">
      <root>
        <mxCell id="0" />
        <mxCell id="1" parent="0" />
        <mxCell id="FKV5GOfbpDWfgFGBKV0M-30" value="Thread :&lt;br&gt;AppClient;Receive" style="shape=umlFrame;whiteSpace=wrap;html=1;pointerEvents=0;width=130;height=40;" parent="1" vertex="1">
          <mxGeometry x="250" y="170" width="230" height="740" as="geometry" />
        </mxCell>
        <mxCell id="FKV5GOfbpDWfgFGBKV0M-1" value="ClientSkeleton" style="shape=umlLifeline;perimeter=lifelinePerimeter;whiteSpace=wrap;html=1;container=1;collapsible=0;recursiveResize=0;outlineConnect=0;rounded=1;shadow=0;comic=0;labelBackgroundColor=none;strokeWidth=1;fontFamily=Verdana;fontSize=12;align=center;movable=1;resizable=1;rotatable=1;deletable=1;editable=1;locked=0;connectable=1;size=40;" parent="1" vertex="1">
          <mxGeometry x="810" y="280" width="100" height="600" as="geometry" />
        </mxCell>
        <mxCell id="FKV5GOfbpDWfgFGBKV0M-2" value="" style="html=1;points=[];perimeter=orthogonalPerimeter;rounded=0;shadow=0;comic=0;labelBackgroundColor=none;strokeWidth=1;fontFamily=Verdana;fontSize=12;align=center;" parent="FKV5GOfbpDWfgFGBKV0M-1" vertex="1">
          <mxGeometry x="45" y="120" width="10" height="400" as="geometry" />
        </mxCell>
        <mxCell id="FKV5GOfbpDWfgFGBKV0M-7" value="AppClient" style="shape=umlLifeline;perimeter=lifelinePerimeter;whiteSpace=wrap;html=1;container=1;collapsible=0;recursiveResize=0;outlineConnect=0;rounded=1;shadow=0;comic=0;labelBackgroundColor=none;strokeWidth=1;fontFamily=Verdana;fontSize=12;align=center;" parent="1" vertex="1">
          <mxGeometry x="-10" y="230" width="100" height="650" as="geometry" />
        </mxCell>
        <mxCell id="FKV5GOfbpDWfgFGBKV0M-8" value="" style="html=1;points=[];perimeter=orthogonalPerimeter;rounded=0;shadow=0;comic=0;labelBackgroundColor=none;strokeWidth=1;fontFamily=Verdana;fontSize=12;align=center;" parent="FKV5GOfbpDWfgFGBKV0M-7" vertex="1">
          <mxGeometry x="45" y="80" width="10" height="530" as="geometry" />
        </mxCell>
        <mxCell id="FKV5GOfbpDWfgFGBKV0M-9" value="NotifyChange() :&lt;br&gt;ViewMessage&amp;lt;?&amp;gt;" style="html=1;verticalAlign=bottom;endArrow=block;entryX=0;entryY=0;labelBackgroundColor=none;fontFamily=Verdana;fontSize=12;edgeStyle=elbowEdgeStyle;elbow=vertical;exitX=1;exitY=0.15;exitDx=0;exitDy=0;exitPerimeter=0;rounded=0;" parent="1" source="FKV5GOfbpDWfgFGBKV0M-33" target="FKV5GOfbpDWfgFGBKV0M-2" edge="1">
          <mxGeometry x="-0.051" relative="1" as="geometry">
            <mxPoint x="460" y="390" as="sourcePoint" />
            <Array as="points">
              <mxPoint x="450" y="400" />
              <mxPoint x="640" y="400" />
            </Array>
            <mxPoint x="1" as="offset" />
          </mxGeometry>
        </mxCell>
        <mxCell id="FKV5GOfbpDWfgFGBKV0M-10" value="Update() :&lt;br&gt;ViewMessage&amp;lt;?&amp;gt;" style="html=1;verticalAlign=bottom;endArrow=block;entryX=-0.212;entryY=0.04;labelBackgroundColor=none;fontFamily=Verdana;fontSize=12;edgeStyle=elbowEdgeStyle;elbow=vertical;entryDx=0;entryDy=0;entryPerimeter=0;" parent="1" source="FKV5GOfbpDWfgFGBKV0M-2" target="aWTG2nPl9HUu7PHv3Y5E-2" edge="1">
          <mxGeometry x="-0.3485" y="10" relative="1" as="geometry">
            <mxPoint x="590" y="400" as="sourcePoint" />
            <mxPoint as="offset" />
            <mxPoint x="1100" y="420" as="targetPoint" />
          </mxGeometry>
        </mxCell>
        <mxCell id="FKV5GOfbpDWfgFGBKV0M-24" value="Thread :&lt;br&gt;AppClient;Main" style="shape=umlFrame;whiteSpace=wrap;html=1;pointerEvents=0;width=110;height=40;" parent="1" vertex="1">
          <mxGeometry x="-100" y="170" width="350" height="740" as="geometry" />
        </mxCell>
        <mxCell id="FKV5GOfbpDWfgFGBKV0M-25" value="NETWORK" style="shape=umlFrame;whiteSpace=wrap;html=1;pointerEvents=0;width=80;height=40;" parent="1" vertex="1">
          <mxGeometry x="480" y="170" width="240" height="740" as="geometry" />
        </mxCell>
        <mxCell id="FKV5GOfbpDWfgFGBKV0M-26" value="Thread :&lt;br&gt;AppServer;Receive" style="shape=umlFrame;whiteSpace=wrap;html=1;pointerEvents=0;width=140;height=40;" parent="1" vertex="1">
          <mxGeometry x="720" y="170" width="1160" height="740" as="geometry" />
        </mxCell>
        <mxCell id="FKV5GOfbpDWfgFGBKV0M-27" value="View" style="shape=umlLifeline;perimeter=lifelinePerimeter;whiteSpace=wrap;html=1;container=1;collapsible=0;recursiveResize=0;outlineConnect=0;rounded=1;shadow=0;comic=0;labelBackgroundColor=none;strokeWidth=1;fontFamily=Verdana;fontSize=12;align=center;" parent="1" vertex="1">
          <mxGeometry x="130" y="230" width="100" height="650" as="geometry" />
        </mxCell>
        <mxCell id="FKV5GOfbpDWfgFGBKV0M-28" value="" style="html=1;points=[];perimeter=orthogonalPerimeter;rounded=0;shadow=0;comic=0;labelBackgroundColor=none;strokeWidth=1;fontFamily=Verdana;fontSize=12;align=center;" parent="FKV5GOfbpDWfgFGBKV0M-27" vertex="1">
          <mxGeometry x="45" y="120" width="10" height="530" as="geometry" />
        </mxCell>
        <mxCell id="4YmWZDnbP1Y0qx3sfrsd-8" value="" style="html=1;points=[];perimeter=orthogonalPerimeter;rounded=0;shadow=0;comic=0;labelBackgroundColor=none;strokeWidth=1;fontFamily=Verdana;fontSize=12;align=center;" parent="FKV5GOfbpDWfgFGBKV0M-27" vertex="1">
          <mxGeometry x="50" y="320" width="10" height="90" as="geometry" />
        </mxCell>
        <mxCell id="4YmWZDnbP1Y0qx3sfrsd-9" value="" style="html=1;points=[];perimeter=orthogonalPerimeter;rounded=0;shadow=0;comic=0;labelBackgroundColor=none;strokeWidth=1;fontFamily=Verdana;fontSize=12;align=center;" parent="FKV5GOfbpDWfgFGBKV0M-27" vertex="1">
          <mxGeometry x="50" y="560" width="10" height="70" as="geometry" />
        </mxCell>
        <mxCell id="FKV5GOfbpDWfgFGBKV0M-38" value="" style="html=1;verticalAlign=bottom;endArrow=block;edgeStyle=elbowEdgeStyle;elbow=vertical;curved=0;rounded=0;entryX=-0.039;entryY=0.001;entryDx=0;entryDy=0;entryPerimeter=0;labelBackgroundColor=default;" parent="FKV5GOfbpDWfgFGBKV0M-27" target="FKV5GOfbpDWfgFGBKV0M-33" edge="1">
          <mxGeometry x="0.071" width="80" relative="1" as="geometry">
            <mxPoint x="55" y="150" as="sourcePoint" />
            <mxPoint x="200" y="150" as="targetPoint" />
            <mxPoint as="offset" />
          </mxGeometry>
        </mxCell>
        <mxCell id="MxoTiHRbFxBwfU8ZwZks-2" value="Update() :&lt;br style=&quot;border-color: var(--border-color);&quot;&gt;&amp;nbsp;ViewMessage&amp;lt;?&amp;gt;" style="edgeLabel;html=1;align=center;verticalAlign=middle;resizable=0;points=[];" parent="FKV5GOfbpDWfgFGBKV0M-38" vertex="1" connectable="0">
          <mxGeometry x="-0.5238" y="1" relative="1" as="geometry">
            <mxPoint x="32" y="-19" as="offset" />
          </mxGeometry>
        </mxCell>
        <mxCell id="fP7o9qs1Q5XyPiEo3hkS-3" value="OnMessage()" style="html=1;verticalAlign=bottom;endArrow=block;elbow=vertical;rounded=0;entryX=1.133;entryY=0.714;entryDx=0;entryDy=0;entryPerimeter=0;" edge="1" parent="FKV5GOfbpDWfgFGBKV0M-27" target="4YmWZDnbP1Y0qx3sfrsd-9">
          <mxGeometry x="0.3481" y="20" width="80" relative="1" as="geometry">
            <mxPoint x="60" y="590" as="sourcePoint" />
            <mxPoint x="110" y="610" as="targetPoint" />
            <Array as="points">
              <mxPoint x="110" y="590" />
              <mxPoint x="110" y="610" />
            </Array>
            <mxPoint as="offset" />
          </mxGeometry>
        </mxCell>
        <mxCell id="FKV5GOfbpDWfgFGBKV0M-31" value="run()" style="html=1;verticalAlign=bottom;endArrow=block;edgeStyle=elbowEdgeStyle;elbow=vertical;curved=0;rounded=0;entryX=-0.033;entryY=0.004;entryDx=0;entryDy=0;entryPerimeter=0;exitX=0.876;exitY=0.08;exitDx=0;exitDy=0;exitPerimeter=0;" parent="1" source="FKV5GOfbpDWfgFGBKV0M-8" target="FKV5GOfbpDWfgFGBKV0M-28" edge="1">
          <mxGeometry width="80" relative="1" as="geometry">
            <mxPoint x="50" y="352" as="sourcePoint" />
            <mxPoint x="170" y="360" as="targetPoint" />
            <Array as="points">
              <mxPoint x="110" y="352" />
            </Array>
          </mxGeometry>
        </mxCell>
        <mxCell id="FKV5GOfbpDWfgFGBKV0M-32" value="ServerStub" style="shape=umlLifeline;perimeter=lifelinePerimeter;whiteSpace=wrap;html=1;container=1;collapsible=0;recursiveResize=0;outlineConnect=0;rounded=1;shadow=0;comic=0;labelBackgroundColor=none;strokeWidth=1;fontFamily=Verdana;fontSize=12;align=center;" parent="1" vertex="1">
          <mxGeometry x="280" y="230" width="100" height="650" as="geometry" />
        </mxCell>
        <mxCell id="FKV5GOfbpDWfgFGBKV0M-33" value="" style="html=1;points=[];perimeter=orthogonalPerimeter;rounded=0;shadow=0;comic=0;labelBackgroundColor=none;strokeWidth=1;fontFamily=Verdana;fontSize=12;align=center;" parent="FKV5GOfbpDWfgFGBKV0M-32" vertex="1">
          <mxGeometry x="45" y="150" width="10" height="450" as="geometry" />
        </mxCell>
        <mxCell id="4YmWZDnbP1Y0qx3sfrsd-3" value="" style="html=1;points=[];perimeter=orthogonalPerimeter;rounded=0;shadow=0;comic=0;labelBackgroundColor=none;strokeWidth=1;fontFamily=Verdana;fontSize=12;align=center;" parent="FKV5GOfbpDWfgFGBKV0M-32" vertex="1">
          <mxGeometry x="50" y="310" width="10" height="90" as="geometry" />
        </mxCell>
        <mxCell id="4YmWZDnbP1Y0qx3sfrsd-11" value="" style="html=1;points=[];perimeter=orthogonalPerimeter;rounded=0;shadow=0;comic=0;labelBackgroundColor=none;strokeWidth=1;fontFamily=Verdana;fontSize=12;align=center;" parent="FKV5GOfbpDWfgFGBKV0M-32" vertex="1">
          <mxGeometry x="50" y="510" width="10" height="90" as="geometry" />
        </mxCell>
        <mxCell id="FKV5GOfbpDWfgFGBKV0M-34" value="Update() :&lt;br&gt;ModelMessage&amp;lt;?&amp;gt;&lt;br&gt;" style="html=1;verticalAlign=bottom;endArrow=block;elbow=vertical;rounded=0;" parent="1" edge="1">
          <mxGeometry x="-0.0734" y="-10" width="80" relative="1" as="geometry">
            <mxPoint x="330" y="790" as="sourcePoint" />
            <mxPoint x="190" y="790" as="targetPoint" />
            <mxPoint as="offset" />
          </mxGeometry>
        </mxCell>
        <mxCell id="aWTG2nPl9HUu7PHv3Y5E-1" value="LocalServer" style="shape=umlLifeline;perimeter=lifelinePerimeter;whiteSpace=wrap;html=1;container=1;collapsible=0;recursiveResize=0;outlineConnect=0;rounded=1;shadow=0;comic=0;labelBackgroundColor=none;strokeWidth=1;fontFamily=Verdana;fontSize=12;align=center;" parent="1" vertex="1">
          <mxGeometry x="1070" y="285" width="110" height="595" as="geometry" />
        </mxCell>
        <mxCell id="aWTG2nPl9HUu7PHv3Y5E-2" value="" style="html=1;points=[];perimeter=orthogonalPerimeter;rounded=0;shadow=0;comic=0;labelBackgroundColor=none;strokeWidth=1;fontFamily=Verdana;fontSize=12;align=center;" parent="aWTG2nPl9HUu7PHv3Y5E-1" vertex="1">
          <mxGeometry x="50" y="120" width="10" height="240" as="geometry" />
        </mxCell>
        <mxCell id="aWTG2nPl9HUu7PHv3Y5E-4" value="GameController" style="shape=umlLifeline;perimeter=lifelinePerimeter;whiteSpace=wrap;html=1;container=1;collapsible=0;recursiveResize=0;outlineConnect=0;rounded=1;shadow=0;comic=0;labelBackgroundColor=none;strokeWidth=1;fontFamily=Verdana;fontSize=12;align=center;" parent="1" vertex="1">
          <mxGeometry x="1490" y="285" width="100" height="595" as="geometry" />
        </mxCell>
        <mxCell id="aWTG2nPl9HUu7PHv3Y5E-5" value="" style="html=1;points=[];perimeter=orthogonalPerimeter;rounded=0;shadow=0;comic=0;labelBackgroundColor=none;strokeWidth=1;fontFamily=Verdana;fontSize=12;align=center;" parent="aWTG2nPl9HUu7PHv3Y5E-4" vertex="1">
          <mxGeometry x="45" y="365" width="10" height="35" as="geometry" />
        </mxCell>
        <mxCell id="aWTG2nPl9HUu7PHv3Y5E-7" value="OnMessage :&lt;br&gt;ViewMessage&amp;lt;?&amp;gt;" style="html=1;verticalAlign=bottom;endArrow=block;labelBackgroundColor=none;fontFamily=Verdana;fontSize=12;rounded=0;edgeStyle=elbowEdgeStyle;elbow=vertical;" parent="1" edge="1">
          <mxGeometry x="-0.1644" relative="1" as="geometry">
            <mxPoint x="1130" y="610" as="sourcePoint" />
            <mxPoint x="1390" y="600" as="targetPoint" />
            <mxPoint as="offset" />
            <Array as="points">
              <mxPoint x="1260" y="600" />
            </Array>
          </mxGeometry>
        </mxCell>
        <mxCell id="aWTG2nPl9HUu7PHv3Y5E-8" value="Alt" style="shape=umlFrame;whiteSpace=wrap;html=1;pointerEvents=0;" parent="1" vertex="1">
          <mxGeometry x="1030" y="365" width="280" height="410" as="geometry" />
        </mxCell>
        <mxCell id="aWTG2nPl9HUu7PHv3Y5E-9" value="GameModel" style="shape=umlLifeline;perimeter=lifelinePerimeter;whiteSpace=wrap;html=1;container=1;collapsible=0;recursiveResize=0;outlineConnect=0;rounded=1;shadow=0;comic=0;labelBackgroundColor=none;strokeWidth=1;fontFamily=Verdana;fontSize=12;align=center;size=40;" parent="1" vertex="1">
          <mxGeometry x="1670" y="280" width="100" height="600" as="geometry" />
        </mxCell>
        <mxCell id="aWTG2nPl9HUu7PHv3Y5E-10" value="" style="html=1;points=[];perimeter=orthogonalPerimeter;rounded=0;shadow=0;comic=0;labelBackgroundColor=none;strokeWidth=1;fontFamily=Verdana;fontSize=12;align=center;" parent="aWTG2nPl9HUu7PHv3Y5E-9" vertex="1">
          <mxGeometry x="45" y="380" width="10" height="70" as="geometry" />
        </mxCell>
        <mxCell id="aWTG2nPl9HUu7PHv3Y5E-12" value="Else&lt;br&gt;" style="html=1;whiteSpace=wrap;dashed=1;" parent="1" vertex="1">
          <mxGeometry x="1050" y="550" width="60" height="20" as="geometry" />
        </mxCell>
        <mxCell id="aWTG2nPl9HUu7PHv3Y5E-13" value="[Modifying state methods]" style="html=1;verticalAlign=bottom;endArrow=block;labelBackgroundColor=none;fontFamily=Verdana;fontSize=12;elbow=vertical;rounded=0;entryX=0.033;entryY=-0.001;entryDx=0;entryDy=0;entryPerimeter=0;exitX=1.162;exitY=0.263;exitDx=0;exitDy=0;exitPerimeter=0;" parent="1" source="aWTG2nPl9HUu7PHv3Y5E-5" target="aWTG2nPl9HUu7PHv3Y5E-10" edge="1">
          <mxGeometry x="0.0018" relative="1" as="geometry">
            <mxPoint x="1550" y="660" as="sourcePoint" />
            <mxPoint x="1785" y="574.5799999999999" as="targetPoint" />
            <mxPoint as="offset" />
            <Array as="points" />
          </mxGeometry>
        </mxCell>
        <mxCell id="aWTG2nPl9HUu7PHv3Y5E-14" value="LobbyController" style="shape=umlLifeline;perimeter=lifelinePerimeter;whiteSpace=wrap;html=1;container=1;collapsible=0;recursiveResize=0;outlineConnect=0;rounded=1;shadow=0;comic=0;labelBackgroundColor=none;strokeWidth=1;fontFamily=Verdana;fontSize=12;align=center;" parent="1" vertex="1">
          <mxGeometry x="1340" y="285" width="110" height="595" as="geometry" />
        </mxCell>
        <mxCell id="aWTG2nPl9HUu7PHv3Y5E-15" value="" style="html=1;points=[];perimeter=orthogonalPerimeter;rounded=0;shadow=0;comic=0;labelBackgroundColor=none;strokeWidth=1;fontFamily=Verdana;fontSize=12;align=center;" parent="aWTG2nPl9HUu7PHv3Y5E-14" vertex="1">
          <mxGeometry x="50" y="210" width="10" height="50" as="geometry" />
        </mxCell>
        <mxCell id="fP7o9qs1Q5XyPiEo3hkS-7" value="" style="html=1;points=[];perimeter=orthogonalPerimeter;rounded=0;shadow=0;comic=0;labelBackgroundColor=none;strokeWidth=1;fontFamily=Verdana;fontSize=12;align=center;" vertex="1" parent="aWTG2nPl9HUu7PHv3Y5E-14">
          <mxGeometry x="50" y="315" width="10" height="50" as="geometry" />
        </mxCell>
        <mxCell id="fP7o9qs1Q5XyPiEo3hkS-8" value="dispatch" style="html=1;verticalAlign=bottom;endArrow=block;elbow=vertical;rounded=0;entryX=-0.039;entryY=-0.002;entryDx=0;entryDy=0;entryPerimeter=0;" edge="1" parent="aWTG2nPl9HUu7PHv3Y5E-14" target="aWTG2nPl9HUu7PHv3Y5E-5">
          <mxGeometry width="80" relative="1" as="geometry">
            <mxPoint x="60" y="365" as="sourcePoint" />
            <mxPoint x="190" y="365" as="targetPoint" />
          </mxGeometry>
        </mxCell>
        <mxCell id="aWTG2nPl9HUu7PHv3Y5E-16" value="OnMessage :&lt;br&gt;ViewMessage&amp;lt;?&amp;gt;" style="html=1;verticalAlign=bottom;endArrow=block;edgeStyle=elbowEdgeStyle;elbow=vertical;curved=0;rounded=0;" parent="1" edge="1">
          <mxGeometry x="-0.0768" width="80" relative="1" as="geometry">
            <mxPoint x="1130" y="505" as="sourcePoint" />
            <mxPoint x="1390" y="505" as="targetPoint" />
            <mxPoint as="offset" />
          </mxGeometry>
        </mxCell>
        <mxCell id="aWTG2nPl9HUu7PHv3Y5E-3" value="ViewMessage&amp;lt;?&amp;gt; is of type:&lt;br&gt;RequestLobby,&lt;br&gt;JoinLobbyMessage,&lt;br&gt;CreateLobbyMessage&lt;br&gt;RecoverLobbyMessage" style="html=1;whiteSpace=wrap;dashed=1;" parent="1" vertex="1">
          <mxGeometry x="1140" y="370" width="130" height="100" as="geometry" />
        </mxCell>
        <mxCell id="4YmWZDnbP1Y0qx3sfrsd-1" value="Update() : ModelMessage&amp;lt;?&amp;gt;" style="html=1;verticalAlign=bottom;endArrow=block;elbow=vertical;rounded=0;exitX=0;exitY=0.718;exitDx=0;exitDy=0;exitPerimeter=0;entryX=1.217;entryY=0.023;entryDx=0;entryDy=0;entryPerimeter=0;" parent="1" source="aWTG2nPl9HUu7PHv3Y5E-15" target="4YmWZDnbP1Y0qx3sfrsd-2" edge="1">
          <mxGeometry x="0.6962" y="-10" width="80" relative="1" as="geometry">
            <mxPoint x="1220" y="680" as="sourcePoint" />
            <mxPoint x="1300" y="680" as="targetPoint" />
            <mxPoint as="offset" />
          </mxGeometry>
        </mxCell>
        <mxCell id="4YmWZDnbP1Y0qx3sfrsd-2" value="" style="html=1;points=[];perimeter=orthogonalPerimeter;rounded=0;shadow=0;comic=0;labelBackgroundColor=none;strokeWidth=1;fontFamily=Verdana;fontSize=12;align=center;" parent="1" vertex="1">
          <mxGeometry x="860" y="530" width="10" height="40" as="geometry" />
        </mxCell>
        <mxCell id="4YmWZDnbP1Y0qx3sfrsd-4" value="Send : ModelMessage&amp;lt;?&amp;gt;" style="html=1;verticalAlign=bottom;endArrow=block;elbow=vertical;rounded=0;exitX=0.003;exitY=0.167;exitDx=0;exitDy=0;exitPerimeter=0;edgeStyle=elbowEdgeStyle;" parent="1" source="4YmWZDnbP1Y0qx3sfrsd-2" edge="1">
          <mxGeometry x="0.1998" y="-10" width="80" relative="1" as="geometry">
            <mxPoint x="680" y="520" as="sourcePoint" />
            <mxPoint x="341" y="570" as="targetPoint" />
            <Array as="points">
              <mxPoint x="620" y="570" />
              <mxPoint x="600" y="580" />
              <mxPoint x="600" y="565" />
              <mxPoint x="770" y="540" />
            </Array>
            <mxPoint as="offset" />
          </mxGeometry>
        </mxCell>
        <mxCell id="4YmWZDnbP1Y0qx3sfrsd-5" value="Update() :&lt;br&gt;ModelMessage&amp;lt;?&amp;gt;&lt;br&gt;" style="html=1;verticalAlign=bottom;endArrow=block;edgeStyle=elbowEdgeStyle;elbow=vertical;curved=0;rounded=0;entryX=1.035;entryY=0.103;entryDx=0;entryDy=0;entryPerimeter=0;" parent="1" edge="1" target="4YmWZDnbP1Y0qx3sfrsd-8">
          <mxGeometry x="-0.0734" y="-10" width="80" relative="1" as="geometry">
            <mxPoint x="331" y="560" as="sourcePoint" />
            <mxPoint x="200" y="560" as="targetPoint" />
            <Array as="points">
              <mxPoint x="190" y="559" />
              <mxPoint x="286" y="550" />
              <mxPoint x="256" y="520" />
              <mxPoint x="196" y="550" />
            </Array>
            <mxPoint as="offset" />
          </mxGeometry>
        </mxCell>
        <mxCell id="fP7o9qs1Q5XyPiEo3hkS-2" value="OnMessage()" style="html=1;verticalAlign=bottom;endArrow=block;elbow=vertical;rounded=0;entryX=1;entryY=0.647;entryDx=0;entryDy=0;entryPerimeter=0;" edge="1" parent="1" target="4YmWZDnbP1Y0qx3sfrsd-8">
          <mxGeometry x="0.365" y="20" width="80" relative="1" as="geometry">
            <mxPoint x="190" y="584" as="sourcePoint" />
            <mxPoint x="270" y="584" as="targetPoint" />
            <Array as="points">
              <mxPoint x="240" y="584" />
              <mxPoint x="240" y="608" />
            </Array>
            <mxPoint as="offset" />
          </mxGeometry>
        </mxCell>
        <mxCell id="fP7o9qs1Q5XyPiEo3hkS-9" value="Update() : ModelMessage&amp;lt;?&amp;gt;" style="html=1;verticalAlign=bottom;endArrow=block;edgeStyle=elbowEdgeStyle;elbow=vertical;curved=0;rounded=0;entryX=0.9;entryY=0.19;entryDx=0;entryDy=0;entryPerimeter=0;" edge="1" parent="1" source="aWTG2nPl9HUu7PHv3Y5E-9" target="fP7o9qs1Q5XyPiEo3hkS-10">
          <mxGeometry x="0.1741" y="-8" width="80" relative="1" as="geometry">
            <mxPoint x="1590" y="710.1" as="sourcePoint" />
            <mxPoint x="1670" y="710.1" as="targetPoint" />
            <Array as="points">
              <mxPoint x="900" y="708" />
            </Array>
            <mxPoint x="1" as="offset" />
          </mxGeometry>
        </mxCell>
        <mxCell id="fP7o9qs1Q5XyPiEo3hkS-10" value="" style="html=1;points=[];perimeter=orthogonalPerimeter;rounded=0;shadow=0;comic=0;labelBackgroundColor=none;strokeWidth=1;fontFamily=Verdana;fontSize=12;align=center;" vertex="1" parent="1">
          <mxGeometry x="860" y="700" width="10" height="40" as="geometry" />
        </mxCell>
        <mxCell id="fP7o9qs1Q5XyPiEo3hkS-11" value="Send : ModelMessage&amp;lt;?&amp;gt;" style="html=1;verticalAlign=bottom;endArrow=block;edgeStyle=elbowEdgeStyle;elbow=vertical;curved=0;rounded=0;entryX=1.114;entryY=0.002;entryDx=0;entryDy=0;entryPerimeter=0;" edge="1" parent="1" target="4YmWZDnbP1Y0qx3sfrsd-11">
          <mxGeometry x="0.1544" y="-10" width="80" relative="1" as="geometry">
            <mxPoint x="860" y="740" as="sourcePoint" />
            <mxPoint x="370" y="740" as="targetPoint" />
            <Array as="points" />
            <mxPoint as="offset" />
          </mxGeometry>
        </mxCell>
      </root>
    </mxGraphModel>
  </diagram>
</mxfile>
